<svg role="img" viewBox="0 0 24 24" xmlns="http://www.w3.org/2000/svg" fill="#E4405F">
  <title>Instagram</title>
  <path d="M12 2.163c3.204 0 3.584.012 4.85.07 1.17.055 1.805.249 2.227.415.562.217.96.477 1.382.896.419.42.679.819.896 1.381.164.422.36 1.057.413 2.227.054 1.265.07 1.646.07 4.85s-.016 3.585-.07 4.85c-.053 1.17-.249 1.805-.413 2.227-.217.562-.477.96-.896 1.381-.42.419-.819.679-1.381.896-.422.164-1.057.36-2.227.413-1.265.054-1.646.07-4.85.07s-3.585-.016-4.85-.07c-1.17-.053-1.805-.249-2.227-.413-.562-.217-.96-.477-1.381-.896-.419-.42-.679-.819-.896-1.381-.164-.422-.36-1.057-.413-2.227-.054-1.265-.07-1.646-.07-4.85s.016-3.585.07-4.85c.053-1.17.249-1.805.413-2.227.217.562.477.96.896 1.381.42.419.819.679 1.381.896.422.164 1.057.36 2.227.413 1.265.054 1.646.07 4.85.07zM12 7.235c-2.62 0-4.765 2.146-4.765 4.765S9.38 16.765 12 16.765s4.765-2.146 4.765-4.765S14.62 7.235 12 7.235zm0 1.95a2.815 2.815 0 1 1 0 5.63 2.815 2.815 0 0 1 0-5.63zm6.406-3.791a1.44 1.44 0 1 0 0 2.88 1.44 1.44 0 0 0 0-2.88z"/>
</svg>
